<svg version="1" xmlns="http://www.w3.org/2000/svg" width="737.333" height="737.333" viewBox="0 0 553.000000 553.000000"><path d="M65 209.1c-9.4 1.2-14.2 2.7-19.1 6l-4.4 2.9 101 .2 101 .3 5 2.7c7.3 3.8 12.7 8.9 16 14.9 2.7 4.8 3 6.3 3 13.9 0 9.6-2.3 16.1-7.6 21.6l-3 3.1 4.1 1.8c2.2 1 5.8 3.7 7.9 6 15.9 17.3 3.4 45.3-23 51.4-2.8.7-40.6 1.1-104.4 1.1h-100l3.8 2.6c10.3 7 16.1 7.4 101.7 7.4 86.3 0 93.4-.5 108.5-7.5 12.6-5.8 21.8-16.5 24.9-29 .8-3.3 1.9-12.2 2.5-19.9.8-11.7 1.4-14.6 3.6-19.2 4.7-9.7 12.4-13.4 27.6-13.4 11.6 0 20 2.6 26.3 8.1 8.3 7.4 10.7 14.7 13.5 42.4 1.1 11.8 3.1 18.8 6.6 23.5l2.5 3.4V245l-40.6-.2-40.6-.3 12.3-13.3 12.3-13.2H405c98.1 0 98.5-.1 96-2-9.4-7.4-22.7-8.3-109.4-7.7-74.2.5-73.1.4-94.1 8.3-8.9 3.3-11 3.8-19 3.8-7.9-.1-10.6-.6-22-4.3-23.4-7.7-18.9-7.4-106.5-7.7-43.2-.1-81.4.2-85 .7zM36.8 224c-5.5 8.6-6.3 15-6.3 52.5s.8 43.9 6.3 52.5l2.7 4.1.3-28.6c.1-15.8.1-41.2 0-56.6l-.3-28-2.7 4.1z"/><path d="M497.5 236.3l-8 8.7H437v88.4l2.5-3.4c3.5-4.7 5.5-11.7 6.6-23.5 3.8-37.3 7.6-43.6 32.1-52.9 14.5-5.4 22.3-10.9 25.8-18.1 4.2-8.7 2-8.4-6.5.8zM112 277v32h87.8l2.6-3.1c3.4-4 3.4-8.8.2-12.6l-2.4-2.8-42.6-.5-42.6-.5 10.1-11.3 10.2-11.2h31.9c20 0 32.7-.4 33.9-1 2.5-1.4 4.9-6.2 4.9-10s-2.4-8.6-4.9-10c-1.3-.6-17.6-1-45.5-1H112v32zM368.3 337.6c5.5 3.7 10.6 5.2 21.7 6.4 10.5 1 26.2 0 33-2.1 3.5-1.2 12-5.7 12-6.5 0-.2-15.9-.4-35.2-.4h-35.3l3.8 2.6z"/></svg>